<svg version="1.1" viewBox="0.0 0.0 599.6561679790026 485.48556430446195" fill="none" stroke="none" stroke-linecap="square" stroke-miterlimit="10" xmlns:xlink="http://www.w3.org/1999/xlink" xmlns="http://www.w3.org/2000/svg"><clipPath id="p.0"><path d="m0 0l599.6562 0l0 485.48557l-599.6562 0l0 -485.48557z" clip-rule="nonzero"/></clipPath><g clip-path="url(#p.0)"><path fill="#000000" fill-opacity="0.0" d="m0 0l599.6562 0l0 485.48557l-599.6562 0z" fill-rule="evenodd"/><path fill="#cfe2f3" d="m46.46719 248.9895l0 0c0 -26.814072 22.357563 -48.551178 49.937008 -48.551178l0 0c13.244118 0 25.945793 5.1151886 35.3108 14.220306c9.3650055 9.105118 14.626205 21.4543 14.626205 34.33087l0 0c0 26.814087 -22.357552 48.551178 -49.937004 48.551178l0 0c-27.579445 0 -49.937008 -21.737091 -49.937008 -48.551178z" fill-rule="evenodd"/><path stroke="#000000" stroke-width="1.0" stroke-linejoin="round" stroke-linecap="butt" d="m46.46719 248.9895l0 0c0 -26.814072 22.357563 -48.551178 49.937008 -48.551178l0 0c13.244118 0 25.945793 5.1151886 35.3108 14.220306c9.3650055 9.105118 14.626205 21.4543 14.626205 34.33087l0 0c0 26.814087 -22.357552 48.551178 -49.937004 48.551178l0 0c-27.579445 0 -49.937008 -21.737091 -49.937008 -48.551178z" fill-rule="evenodd"/><path fill="#000000" d="m77.54866 251.61263l1.65625 -0.140625q0.125 1.0 0.546875 1.640625q0.4375 0.640625 1.34375 1.046875q0.921875 0.390625 2.0625 0.390625q1.0 0 1.78125 -0.296875q0.78125 -0.296875 1.15625 -0.8125q0.375 -0.53125 0.375 -1.15625q0 -0.625 -0.375 -1.09375q-0.359375 -0.46875 -1.1875 -0.796875q-0.546875 -0.203125 -2.390625 -0.640625q-1.828125 -0.453125 -2.5625 -0.84375q-0.96875 -0.5 -1.4375 -1.234375q-0.46875 -0.75 -0.46875 -1.671875q0 -1.0 0.578125 -1.875q0.578125 -0.890625 1.671875 -1.34375q1.109375 -0.453125 2.453125 -0.453125q1.484375 0 2.609375 0.484375q1.140625 0.46875 1.75 1.40625q0.609375 0.921875 0.65625 2.09375l-1.6875 0.125q-0.140625 -1.265625 -0.9375 -1.90625q-0.78125 -0.65625 -2.3125 -0.65625q-1.609375 0 -2.34375 0.59375q-0.734375 0.59375 -0.734375 1.421875q0 0.71875 0.53125 1.171875q0.5 0.46875 2.65625 0.96875q2.15625 0.484375 2.953125 0.84375q1.171875 0.53125 1.71875 1.359375q0.5625 0.828125 0.5625 1.90625q0 1.0625 -0.609375 2.015625q-0.609375 0.9375 -1.75 1.46875q-1.140625 0.51564026 -2.578125 0.51564026q-1.8125 0 -3.046875 -0.53126526q-1.21875 -0.53125 -1.921875 -1.59375q-0.6875 -1.0625 -0.71875 -2.40625zm16.412323 2.828125l0.234375 1.453125q-0.6875 0.14064026 -1.234375 0.14064026q-0.890625 0 -1.390625 -0.28126526q-0.484375 -0.28125 -0.6875 -0.734375q-0.203125 -0.46875 -0.203125 -1.9375l0 -5.578125l-1.203125 0l0 -1.265625l1.203125 0l0 -2.390625l1.625 -0.984375l0 3.375l1.65625 0l0 1.265625l-1.65625 0l0 5.671875q0 0.6875 0.078125 0.890625q0.09375 0.203125 0.28125 0.328125q0.203125 0.109375 0.578125 0.109375q0.265625 0 0.71875 -0.0625zm7.917679 0.28125q-0.921875 0.765625 -1.765625 1.09375q-0.828125 0.31251526 -1.796875 0.31251526q-1.59375 0 -2.453125 -0.78126526q-0.859375 -0.78125 -0.859375 -1.984375q0 -0.71875 0.328125 -1.296875q0.328125 -0.59375 0.84375 -0.9375q0.53125 -0.359375 1.1875 -0.546875q0.46875 -0.125 1.453125 -0.25q1.984375 -0.234375 2.921875 -0.5625q0.015625 -0.34375 0.015625 -0.421875q0 -1.0 -0.46875 -1.421875q-0.625 -0.546875 -1.875 -0.546875q-1.15625 0 -1.703125 0.40625q-0.546875 0.40625 -0.8125 1.421875l-1.609375 -0.21875q0.21875 -1.015625 0.71875 -1.640625q0.5 -0.640625 1.453125 -0.984375q0.953125 -0.34375 2.1875 -0.34375q1.25 0 2.015625 0.296875q0.78125 0.28125 1.140625 0.734375q0.375 0.4375 0.515625 1.109375q0.078125 0.421875 0.078125 1.515625l0 2.1875q0 2.28125 0.109375 2.890625q0.109375 0.59375 0.40625 1.15625l-1.703125 0q-0.265625 -0.515625 -0.328125 -1.1875zm-0.140625 -3.671875q-0.890625 0.375 -2.671875 0.625q-1.015625 0.140625 -1.4375 0.328125q-0.421875 0.1875 -0.65625 0.53125q-0.21875 0.34375 -0.21875 0.78125q0 0.65625 0.5 1.09375q0.5 0.4375 1.453125 0.4375q0.9375 0 1.671875 -0.40625q0.75 -0.421875 1.09375 -1.140625q0.265625 -0.5625 0.265625 -1.640625l0 -0.609375zm4.188217 4.859375l0 -9.671875l1.46875 0l0 1.46875q0.5625 -1.03125 1.03125 -1.359375q0.484375 -0.328125 1.0625 -0.328125q0.828125 0 1.6875 0.53125l-0.5625 1.515625q-0.609375 -0.359375 -1.203125 -0.359375q-0.546875 0 -0.96875 0.328125q-0.421875 0.328125 -0.609375 0.890625q-0.28125 0.875 -0.28125 1.921875l0 5.0625l-1.625 0zm9.806427 -1.46875l0.234375 1.453125q-0.6875 0.14064026 -1.234375 0.14064026q-0.890625 0 -1.390625 -0.28126526q-0.484375 -0.28125 -0.6875 -0.734375q-0.203125 -0.46875 -0.203125 -1.9375l0 -5.578125l-1.203125 0l0 -1.265625l1.203125 0l0 -2.390625l1.625 -0.984375l0 3.375l1.65625 0l0 1.265625l-1.65625 0l0 5.671875q0 0.6875 0.078125 0.890625q0.09375 0.203125 0.28125 0.328125q0.203125 0.109375 0.578125 0.109375q0.265625 0 0.71875 -0.0625z" fill-rule="nonzero"/><path fill="#cfe2f3" d="m207.4147 130.73753l0 0c0 -26.81408 22.35756 -48.551186 49.93701 -48.551186l0 0c13.24411 0 25.94577 5.115204 35.31079 14.220314c9.36499 9.105118 14.626221 21.4543 14.626221 34.33087l0 0c0 26.814072 -22.357574 48.551178 -49.93701 48.551178l0 0c-27.579453 0 -49.93701 -21.737106 -49.93701 -48.551178z" fill-rule="evenodd"/><path stroke="#000000" stroke-width="1.0" stroke-linejoin="round" stroke-linecap="butt" d="m207.4147 130.73753l0 0c0 -26.81408 22.35756 -48.551186 49.93701 -48.551186l0 0c13.24411 0 25.94577 5.115204 35.31079 14.220314c9.36499 9.105118 14.626221 21.4543 14.626221 34.33087l0 0c0 26.814072 -22.357574 48.551178 -49.93701 48.551178l0 0c-27.579453 0 -49.93701 -21.737106 -49.93701 -48.551178z" fill-rule="evenodd"/><path fill="#000000" d="m250.97192 137.65753l0 -13.359375l2.65625 0l3.15625 9.453125q0.4375 1.328125 0.640625 1.984375q0.234375 -0.734375 0.703125 -2.140625l3.203125 -9.296875l2.375 0l0 13.359375l-1.703125 0l0 -11.171875l-3.875 11.171875l-1.59375 0l-3.859375 -11.375l0 11.375l-1.703125 0z" fill-rule="nonzero"/><path fill="#cfe2f3" d="m207.41995 368.28348l0 0c0 -26.814087 22.35756 -48.55121 49.93701 -48.55121l0 0c13.24411 0 25.94577 5.115204 35.31079 14.220337c9.36499 9.105103 14.626221 21.454285 14.626221 34.33087l0 0c0 26.814056 -22.357574 48.551178 -49.93701 48.551178l0 0c-27.579453 0 -49.93701 -21.737122 -49.93701 -48.551178z" fill-rule="evenodd"/><path stroke="#000000" stroke-width="1.0" stroke-linejoin="round" stroke-linecap="butt" d="m207.41995 368.28348l0 0c0 -26.814087 22.35756 -48.55121 49.93701 -48.55121l0 0c13.24411 0 25.94577 5.115204 35.31079 14.220337c9.36499 9.105103 14.626221 21.454285 14.626221 34.33087l0 0c0 26.814056 -22.357574 48.551178 -49.93701 48.551178l0 0c-27.579453 0 -49.93701 -21.737122 -49.93701 -48.551178z" fill-rule="evenodd"/><path fill="#000000" d="m235.2619 375.20346l0 -9.671875l1.46875 0l0 1.375q1.0625 -1.59375 3.078125 -1.59375q0.875 0 1.609375 0.3125q0.734375 0.3125 1.09375 0.828125q0.375 0.5 0.515625 1.203125q0.09375 0.453125 0.09375 1.59375l0 5.953125l-1.640625 0l0 -5.890625q0 -1.0 -0.203125 -1.484375q-0.1875 -0.5 -0.671875 -0.796875q-0.484375 -0.296875 -1.140625 -0.296875q-1.046875 0 -1.8125 0.671875q-0.75 0.65625 -0.75 2.515625l0 5.28125l-1.640625 0zm9.766342 -4.84375q0 -2.6875 1.484375 -3.96875q1.25 -1.078125 3.046875 -1.078125q2.0 0 3.265625 1.3125q1.2656403 1.296875 1.2656403 3.609375q0 1.859375 -0.56251526 2.9375q-0.5625 1.0625 -1.640625 1.65625q-1.0625 0.59375 -2.328125 0.59375q-2.03125 0 -3.28125 -1.296875q-1.25 -1.3125 -1.25 -3.765625zm1.6875 0q0 1.859375 0.796875 2.796875q0.8125 0.921875 2.046875 0.921875q1.21875 0 2.03125 -0.921875q0.8125 -0.9375 0.8125 -2.84375q0 -1.796875 -0.8125 -2.71875q-0.8125 -0.921875 -2.03125 -0.921875q-1.234375 0 -2.046875 0.921875q-0.796875 0.90625 -0.796875 2.765625zm12.875717 3.375l0.234375 1.453125q-0.6875 0.140625 -1.234375 0.140625q-0.890625 0 -1.390625 -0.28125q-0.484375 -0.28125 -0.6875 -0.734375q-0.203125 -0.46875 -0.203125 -1.9375l0 -5.578125l-1.2031097 0l0 -1.265625l1.2031097 0l0 -2.390625l1.625 -0.984375l0 3.375l1.65625 0l0 1.265625l-1.65625 0l0 5.671875q0 0.6875 0.078125 0.890625q0.09375 0.203125 0.28125 0.328125q0.203125 0.109375 0.578125 0.109375q0.265625 0 0.71875 -0.0625zm6.9447327 1.46875l0 -13.359375l2.65625 0l3.15625 9.453125q0.4375 1.328125 0.640625 1.984375q0.234375 -0.734375 0.703125 -2.140625l3.203125 -9.296875l2.375 0l0 13.359375l-1.703125 0l0 -11.171875l-3.875 11.171875l-1.59375 0l-3.859375 -11.375l0 11.375l-1.703125 0z" fill-rule="nonzero"/><path fill="#cfe2f3" d="m383.67715 70.83727l0 0c0 -26.81408 22.357574 -48.551186 49.93701 -48.551186l0 0c13.24411 0 25.9458 5.1152 35.31079 14.220312c9.365021 9.105114 14.626221 21.454296 14.626221 34.33087l0 0c0 26.814072 -22.357544 48.551178 -49.93701 48.551178l0 0c-27.579437 0 -49.93701 -21.737106 -49.93701 -48.551178z" fill-rule="evenodd"/><path stroke="#000000" stroke-width="1.0" stroke-linejoin="round" stroke-linecap="butt" d="m383.67715 70.83727l0 0c0 -26.81408 22.357574 -48.551186 49.93701 -48.551186l0 0c13.24411 0 25.9458 5.1152 35.31079 14.220312c9.365021 9.105114 14.626221 21.454296 14.626221 34.33087l0 0c0 26.814072 -22.357544 48.551178 -49.93701 48.551178l0 0c-27.579437 0 -49.93701 -21.737106 -49.93701 -48.551178z" fill-rule="evenodd"/><path fill="#000000" d="m429.78568 77.75727l0 -13.359375l1.7812805 0l0 11.78125l6.5625 0l0 1.578125l-8.3437805 0z" fill-rule="nonzero"/><path fill="#cfe2f3" d="m383.67715 188.09448l0 0c0 -26.814072 22.357574 -48.551178 49.93701 -48.551178l0 0c13.24411 0 25.9458 5.115204 35.31079 14.220322c9.365021 9.105103 14.626221 21.454285 14.626221 34.330856l0 0c0 26.814087 -22.357544 48.551193 -49.93701 48.551193l0 0c-27.579437 0 -49.93701 -21.737106 -49.93701 -48.551193z" fill-rule="evenodd"/><path stroke="#000000" stroke-width="1.0" stroke-linejoin="round" stroke-linecap="butt" d="m383.67715 188.09448l0 0c0 -26.814072 22.357574 -48.551178 49.93701 -48.551178l0 0c13.24411 0 25.9458 5.115204 35.31079 14.220322c9.365021 9.105103 14.626221 21.454285 14.626221 34.330856l0 0c0 26.814087 -22.357544 48.551193 -49.93701 48.551193l0 0c-27.579437 0 -49.93701 -21.737106 -49.93701 -48.551193z" fill-rule="evenodd"/><path fill="#000000" d="m414.10165 195.0145l0 -9.671875l1.46875 0l0 1.375q1.0625 -1.59375 3.078125 -1.59375q0.875 0 1.609375 0.3125q0.734375 0.3125 1.09375 0.828125q0.375 0.5 0.515625 1.203125q0.09375 0.453125 0.09375 1.59375l0 5.953125l-1.640625 0l0 -5.890625q0 -1.0 -0.203125 -1.484375q-0.1875 -0.5 -0.671875 -0.796875q-0.484375 -0.296875 -1.140625 -0.296875q-1.046875 0 -1.8125 0.671875q-0.75 0.65625 -0.75 2.515625l0 5.28125l-1.640625 0zm9.766357 -4.84375q0 -2.6875 1.484375 -3.96875q1.25 -1.078125 3.046875 -1.078125q2.0 0 3.265625 1.3125q1.265625 1.296875 1.265625 3.609375q0 1.859375 -0.5625 2.9375q-0.5625 1.0625 -1.640625 1.65625q-1.0625 0.59375 -2.328125 0.59375q-2.03125 0 -3.28125 -1.296875q-1.25 -1.3125 -1.25 -3.765625zm1.6875 0q0 1.859375 0.796875 2.796875q0.8125 0.921875 2.046875 0.921875q1.21875 0 2.03125 -0.921875q0.8125 -0.9375 0.8125 -2.84375q0 -1.796875 -0.8125 -2.71875q-0.8125 -0.921875 -2.03125 -0.921875q-1.234375 0 -2.046875 0.921875q-0.796875 0.90625 -0.796875 2.765625zm12.875732 3.375l0.234375 1.453125q-0.6875 0.140625 -1.234375 0.140625q-0.890625 0 -1.390625 -0.28125q-0.484375 -0.28125 -0.6875 -0.734375q-0.203125 -0.46875 -0.203125 -1.9375l0 -5.578125l-1.203125 0l0 -1.265625l1.203125 0l0 -2.390625l1.625 -0.984375l0 3.375l1.65625 0l0 1.265625l-1.65625 0l0 5.671875q0 0.6875 0.078125 0.890625q0.09375 0.203125 0.28125 0.328125q0.203125 0.109375 0.578125 0.109375q0.265625 0 0.71875 -0.0625zm6.9134827 1.46875l0 -13.359375l1.78125 0l0 11.78125l6.5625 0l0 1.578125l-8.34375 0z" fill-rule="nonzero"/><path fill="#cfe2f3" d="m383.67715 305.3517l0 0c0 -26.814087 22.357574 -48.551178 49.93701 -48.551178l0 0c13.24411 0 25.9458 5.1151733 35.31079 14.220306c9.365021 9.105103 14.626221 21.454285 14.626221 34.33087l0 0c0 26.814056 -22.357544 48.551178 -49.93701 48.551178l0 0c-27.579437 0 -49.93701 -21.737122 -49.93701 -48.551178z" fill-rule="evenodd"/><path stroke="#000000" stroke-width="1.0" stroke-linejoin="round" stroke-linecap="butt" d="m383.67715 305.3517l0 0c0 -26.814087 22.357574 -48.551178 49.93701 -48.551178l0 0c13.24411 0 25.9458 5.1151733 35.31079 14.220306c9.365021 9.105103 14.626221 21.454285 14.626221 34.33087l0 0c0 26.814056 -22.357544 48.551178 -49.93701 48.551178l0 0c-27.579437 0 -49.93701 -21.737122 -49.93701 -48.551178z" fill-rule="evenodd"/><path fill="#000000" d="m429.78568 312.2717l0 -13.359375l1.7812805 0l0 11.78125l6.5625 0l0 1.578125l-8.3437805 0z" fill-rule="nonzero"/><path fill="#cfe2f3" d="m383.67715 422.60892l0 0c0 -26.814056 22.357574 -48.551178 49.93701 -48.551178l0 0c13.24411 0 25.9458 5.115204 35.31079 14.220306c9.365021 9.105133 14.626221 21.454315 14.626221 34.33087l0 0c0 26.814087 -22.357544 48.551178 -49.93701 48.551178l0 0c-27.579437 0 -49.93701 -21.737091 -49.93701 -48.551178z" fill-rule="evenodd"/><path stroke="#000000" stroke-width="1.0" stroke-linejoin="round" stroke-linecap="butt" d="m383.67715 422.60892l0 0c0 -26.814056 22.357574 -48.551178 49.93701 -48.551178l0 0c13.24411 0 25.9458 5.115204 35.31079 14.220306c9.365021 9.105133 14.626221 21.454315 14.626221 34.33087l0 0c0 26.814087 -22.357544 48.551178 -49.93701 48.551178l0 0c-27.579437 0 -49.93701 -21.737091 -49.93701 -48.551178z" fill-rule="evenodd"/><path fill="#000000" d="m414.10165 429.52893l0 -9.671875l1.46875 0l0 1.375q1.0625 -1.59375 3.078125 -1.59375q0.875 0 1.609375 0.3125q0.734375 0.3125 1.09375 0.828125q0.375 0.5 0.515625 1.203125q0.09375 0.453125 0.09375 1.59375l0 5.953125l-1.640625 0l0 -5.890625q0 -1.0 -0.203125 -1.484375q-0.1875 -0.5 -0.671875 -0.796875q-0.484375 -0.296875 -1.140625 -0.296875q-1.046875 0 -1.8125 0.671875q-0.75 0.65625 -0.75 2.515625l0 5.28125l-1.640625 0zm9.766357 -4.84375q0 -2.6875 1.484375 -3.96875q1.25 -1.078125 3.046875 -1.078125q2.0 0 3.265625 1.3125q1.265625 1.296875 1.265625 3.609375q0 1.859375 -0.5625 2.9375q-0.5625 1.0625 -1.640625 1.65625q-1.0625 0.59375 -2.328125 0.59375q-2.03125 0 -3.28125 -1.296875q-1.25 -1.3125 -1.25 -3.765625zm1.6875 0q0 1.859375 0.796875 2.796875q0.8125 0.921875 2.046875 0.921875q1.21875 0 2.03125 -0.921875q0.8125 -0.9375 0.8125 -2.84375q0 -1.796875 -0.8125 -2.71875q-0.8125 -0.921875 -2.03125 -0.921875q-1.234375 0 -2.046875 0.921875q-0.796875 0.90625 -0.796875 2.765625zm12.875732 3.375l0.234375 1.453125q-0.6875 0.140625 -1.234375 0.140625q-0.890625 0 -1.390625 -0.28125q-0.484375 -0.28125 -0.6875 -0.734375q-0.203125 -0.46875 -0.203125 -1.9375l0 -5.578125l-1.203125 0l0 -1.265625l1.203125 0l0 -2.390625l1.625 -0.984375l0 3.375l1.65625 0l0 1.265625l-1.65625 0l0 5.671875q0 0.6875 0.078125 0.890625q0.09375 0.203125 0.28125 0.328125q0.203125 0.109375 0.578125 0.109375q0.265625 0 0.71875 -0.0625zm6.9134827 1.46875l0 -13.359375l1.78125 0l0 11.78125l6.5625 0l0 1.578125l-8.34375 0z" fill-rule="nonzero"/><path fill="#000000" fill-opacity="0.0" d="m131.715 214.65863l90.3307 -49.5748" fill-rule="evenodd"/><path stroke="#000000" stroke-width="1.0" stroke-linejoin="round" stroke-linecap="butt" d="m131.715 214.65863l85.070786 -46.68808" fill-rule="evenodd"/><path fill="#000000" stroke="#000000" stroke-width="1.0" stroke-linecap="butt" d="m217.58046 169.41855l3.18367 -3.6313782l-4.7730255 0.7353821z" fill-rule="evenodd"/><path fill="#000000" fill-opacity="0.0" d="m131.715 283.32037l90.3307 50.64566" fill-rule="evenodd"/><path stroke="#000000" stroke-width="1.0" stroke-linejoin="round" stroke-linecap="butt" d="m131.715 283.32037l85.09717 47.711395" fill-rule="evenodd"/><path fill="#000000" stroke="#000000" stroke-width="1.0" stroke-linecap="butt" d="m216.0044 332.4725l4.766159 0.778595l-3.1506195 -3.6600647z" fill-rule="evenodd"/><path fill="#000000" fill-opacity="0.0" d="m307.28873 130.73753l76.37793 -59.90551" fill-rule="evenodd"/><path stroke="#000000" stroke-width="1.0" stroke-linejoin="round" stroke-linecap="butt" d="m307.28873 130.73753l71.65686 -56.20262" fill-rule="evenodd"/><path fill="#000000" stroke="#000000" stroke-width="1.0" stroke-linecap="butt" d="m379.96494 75.83457l2.5514526 -4.100342l-4.5901794 1.5010147z" fill-rule="evenodd"/><path fill="#000000" fill-opacity="0.0" d="m307.28873 130.73753l76.37793 57.354324" fill-rule="evenodd"/><path stroke="#000000" stroke-width="1.0" stroke-linejoin="round" stroke-linecap="butt" d="m307.28873 130.73753l71.58008 53.75148" fill-rule="evenodd"/><path fill="#000000" stroke="#000000" stroke-width="1.0" stroke-linecap="butt" d="m377.87698 185.80981l4.620697 1.4042206l-2.6370544 -4.045822z" fill-rule="evenodd"/><path fill="#000000" fill-opacity="0.0" d="m307.29398 368.28348l76.37793 -62.92914" fill-rule="evenodd"/><path stroke="#000000" stroke-width="1.0" stroke-linejoin="round" stroke-linecap="butt" d="m307.29398 368.28348l71.74725 -59.11383" fill-rule="evenodd"/><path fill="#000000" stroke="#000000" stroke-width="1.0" stroke-linecap="butt" d="m380.09152 310.44443l2.452118 -4.160492l-4.5527344 1.6109314z" fill-rule="evenodd"/><path fill="#000000" fill-opacity="0.0" d="m307.29398 368.28348l76.37793 54.33069" fill-rule="evenodd"/><path stroke="#000000" stroke-width="1.0" stroke-linejoin="round" stroke-linecap="butt" d="m307.29398 368.28348l71.48874 50.852814" fill-rule="evenodd"/><path fill="#000000" stroke="#000000" stroke-width="1.0" stroke-linecap="butt" d="m377.8253 420.48224l4.655365 1.2845459l-2.740509 -3.9764404z" fill-rule="evenodd"/><path fill="#000000" fill-opacity="0.0" d="m121.247826 184.69093l59.49607 -34.23622l13.574799 23.559052l-59.496063 34.23622z" fill-rule="evenodd"/><path fill="#000000" d="m140.8261 198.57652l-4.766327 -8.271942l3.114853 -1.7924042q0.82611084 -0.4753723 1.3062897 -0.64352417q0.6718445 -0.24238586 1.2419434 -0.19186401q0.5836487 0.04272461 1.1238556 0.41690063q0.55374146 0.36639404 0.90478516 0.97561646q0.6084595 1.0559998 0.35256958 2.176712q-0.24235535 1.1129303 -2.0029297 2.1260376l-2.1126862 1.2157135l1.9346161 3.3575134l-1.0969696 0.63124084zm-1.3993073 -4.963516l2.1262207 -1.2235107q1.0698853 -0.61564636 1.2905884 -1.2654266q0.21287537 -0.6633301 -0.19276428 -1.3673248q-0.30422974 -0.5279999 -0.78570557 -0.7376709q-0.46794128 -0.21746826 -0.9715271 -0.0899353q-0.31765747 0.07463074 -1.0625153 0.5032501l-2.1126862 1.2157135l1.7083893 2.9649048zm12.323334 1.9223328q-1.4694672 -0.5785675 -2.8709106 -1.6649933q-1.3878784 -1.094223 -2.2615814 -2.6105194q-0.77227783 -1.3403015 -1.0487823 -2.8216705q-0.31800842 -1.7098694 -0.067214966 -3.7470398l0.71777344 -0.41304016q0.0015258789 1.5674896 0.07347107 2.1931q0.092544556 0.9743042 0.39439392 1.9363251q0.36470032 1.1962738 0.9731598 2.2522583q1.5679779 2.721222 4.8074493 4.462555l-0.7177582 0.4130249zm0.5873871 -3.5829163l-4.7663116 -8.271942l1.6522217 -0.9507446l5.327942 4.7398987q0.73890686 0.65644836 1.1083679 0.9846649q-0.12200928 -0.5246887 -0.33111572 -1.5761414l-1.3381042 -6.8915863l1.4761658 -0.8494415l4.766327 8.271942l-1.0563507 0.6078644l-3.9862366 -6.918106l1.5891571 8.29747l-0.9886322 0.56889343l-6.4535217 -5.6605835l4.0564423 7.039963l-1.0563507 0.6078491zm11.595917 -3.4277954l-0.71777344 0.4130249q0.119140625 -3.6740112 -1.4488373 -6.395218q-0.6084595 -1.0559998 -1.4528961 -1.9581757q-0.6810608 -0.7438202 -1.4642792 -1.3206787q-0.5266571 -0.38197327 -1.8824768 -1.170166l0.71777344 -0.4130249q1.888977 0.8058777 3.2091522 1.9390564q1.1432495 0.98262024 1.9155273 2.3229218q0.873703 1.5162964 1.1104431 3.2729187q0.23675537 1.7566376 0.013366699 3.3093414z" fill-rule="nonzero"/><path fill="#000000" fill-opacity="0.0" d="m128.71896 290.16217l84.157486 45.82675l-12.976379 23.874023l-84.157486 -45.826782z" fill-rule="evenodd"/><path fill="#000000" d="m127.11811 314.11298l4.5591354 -8.387939l3.1561584 1.7186584q0.83706665 0.45581055 1.2314148 0.7772827q0.55781555 0.44607544 0.8127899 0.9585571q0.26869202 0.519928 0.23214722 1.1760864q-0.02281189 0.6636658 -0.3585968 1.2814331q-0.582016 1.0708008 -1.6710663 1.4385071q-1.0753326 0.3751526 -2.859253 -0.59625244l-2.1407013 -1.1656799l-1.8505096 3.404602l-1.1115189 -0.6052551zm3.4992752 -3.7877808l2.154419 1.1731567q1.0840759 0.59033203 1.7533112 0.43878174q0.6766815 -0.16525269 1.0646973 -0.8791199q0.29101562 -0.5354004 0.21803284 -1.055481q-0.059265137 -0.5126648 -0.43122864 -0.8753052q-0.2296753 -0.23184204 -0.9844055 -0.64282227l-2.1407013 -1.1656799l-1.6341248 3.0064697zm4.803711 11.511475q-0.27503967 -1.5552673 -0.08161926 -3.3180542q0.20713806 -1.7552795 1.0428619 -3.2928467q0.7387085 -1.3591003 1.856842 -2.3692322q1.291214 -1.164978 3.1587677 -2.0161438l0.7272949 0.39605713q-1.3352966 0.82073975 -1.8309326 1.2091064q-0.7821045 0.5882263 -1.4443054 1.3484802q-0.82902527 0.9363098 -1.4110413 2.0071106q-1.4998169 2.759369 -1.2905884 6.4315796l-0.72727966 -0.39605713zm3.2650146 -1.42453l3.2980957 -6.0678406l0.9331207 0.5081177l-0.47009277 0.86486816q1.2033844 -0.64349365 2.4658508 0.04397583q0.54888916 0.29888916 0.9109955 0.7451477q0.36209106 0.44625854 0.40257263 0.8952942q0.061660767 0.44277954 -0.08105469 0.9343872q-0.10180664 0.31817627 -0.4898224 1.0320435l-2.029602 3.7340698l-1.0291748 -0.5604248l2.0072021 -3.6929016q0.34324646 -0.6314697 0.38391113 -1.0007629q0.048110962 -0.3829956 -0.15678406 -0.7258606q-0.19741821 -0.35656738 -0.60910034 -0.5807495q-0.65867615 -0.3586731 -1.3628082 -0.2083435q-0.7041321 0.15029907 -1.3383942 1.3171997l-1.8057404 3.3222046l-1.0291748 -0.5604248zm7.774704 0.3017273q0.9178009 -1.6885681 2.3048859 -1.9829407q1.1478119 -0.24676514 2.2730408 0.3659668q1.2487488 0.6799927 1.5969391 1.9370728q0.35565186 1.2433777 -0.43528748 2.6985474q-0.6342468 1.1669006 -1.3566589 1.6452942q-0.7086792 0.48587036 -1.58255 0.49038696q-0.87387085 0.0045166016 -1.6697693 -0.42886353q-1.2761841 -0.6949463 -1.6318359 -1.9382935q-0.33447266 -1.2496033 0.50123596 -2.7871704zm1.0566254 0.5753784q-0.6342468 1.1669006 -0.4399109 2.0199585q0.20805359 0.86053467 0.9765167 1.2789612q0.7684479 0.41845703 1.5895844 0.11834717q0.82858276 -0.31381226 1.4777527 -1.5081787q0.6118622 -1.1257019 0.4038086 -1.9862366q-0.19433594 -0.85305786 -0.94906616 -1.2640381q-0.76846313 -0.41845703 -1.603302 -0.12582397q-0.8211212 0.30010986 -1.4553833 1.4670105zm6.938858 6.5183105l-0.34152222 0.98828125q-0.49134827 -0.14303589 -0.8344116 -0.32983398q-0.5626221 -0.30636597 -0.78123474 -0.65670776q-0.20487976 -0.342865 -0.1716919 -0.6983948q0.033203125 -0.3555298 0.5405884 -1.2890625l1.8952942 -3.486969l-0.7547302 -0.41098022l0.43278503 -0.79623413l0.7547302 0.41098022l0.8207855 -1.5101013l1.3649597 -0.05734253l-1.1565704 2.1278687l1.0291901 0.5604553l-0.43278503 0.79623413l-1.0291901 -0.5604553l-1.9325867 3.555603q-0.23878479 0.43930054 -0.2647705 0.58529663q-0.012268066 0.15344238 0.066467285 0.30303955q0.0861969 0.13589478 0.31947327 0.26293945q0.1783905 0.09713745 0.47521973 0.2053833zm3.8498383 3.288391l4.559128 -8.387909l1.6741333 0.9116211l-1.2549133 7.0203247q-0.17324829 0.97314453 -0.2598877 1.4597168q0.38346863 -0.37832642 1.1703796 -1.1062622l5.174713 -4.7434998l1.4957428 0.81448364l-4.559128 8.387909l-1.0703583 -0.5828247l3.8129578 -7.015106l-6.2418213 5.6924744l-1.0017395 -0.5454712l1.4512482 -8.461243l-3.8801117 7.1386414l-1.070343 -0.5828552zm8.983765 8.094452l-0.7272949 -0.39605713q3.1939392 -1.8190613 4.693741 -4.57843q0.582016 -1.0707703 0.9095764 -2.2623596q0.27796936 -0.9694824 0.3602295 -1.9388123q0.05026245 -0.64868164 0.013320923 -2.2166443l0.7272949 0.3960266q0.3005829 2.0317688 0.02482605 3.7496948q-0.23989868 1.4884033 -0.97862244 2.8474731q-0.8357086 1.5375671 -2.209259 2.6577148q-1.3735504 1.1201477 -2.8138123 1.741394z" fill-rule="nonzero"/><path fill="#000000" fill-opacity="0.0" d="m301.09888 91.45088l51.68506 -38.48819l20.818878 27.937012l-51.685028 38.488182z" fill-rule="evenodd"/><path fill="#000000" d="m322.17078 102.93974l-5.7046204 -7.6550674l2.8823547 -2.1464005q0.7644348 -0.5692673 1.2214966 -0.7927246q0.63861084 -0.3197174 1.2106628 -0.33657837q0.5845337 -0.026191711 1.164917 0.2819214q0.5928955 0.29878235 1.013031 0.8625717q0.72824097 0.9772415 0.60583496 2.120407q-0.1098938 1.1338272 -1.7390747 2.3470154l-1.9549866 1.4558182l2.3154602 3.107132l-1.0150757 0.75590515zm-1.9725952 -4.765106l1.9674988 -1.4651566q0.99005127 -0.73724365 1.132843 -1.4085388q0.13345337 -0.68382263 -0.35205078 -1.3353195q-0.36413574 -0.48861694 -0.8668518 -0.64025116q-0.49020386 -0.16096497 -0.97525024 0.024902344q-0.30664062 0.11147308 -0.99591064 0.6247406l-1.9549866 1.4558258l2.0447083 2.7437973zm12.462463 0.46028137q-1.5270996 -0.40184784 -3.0463257 -1.3160782q-1.5066833 -0.9235687 -2.5523682 -2.3267899q-0.9243164 -1.2403488 -1.3729248 -2.6790924q-0.5166321 -1.6608124 -0.506958 -3.7135773l0.6642151 -0.49460602q0.18566895 1.5566101 0.33059692 2.1694946q0.20635986 0.95677185 0.6191101 1.8767319q0.50268555 1.1452255 1.2309265 2.122467q1.876648 2.51828 5.2979126 3.8668442l-0.6641846 0.49460602zm0.14978027 -3.6181946l-5.7046204 -7.6550674l1.0151062 -0.7559128l5.032379 6.753006l3.7721558 -2.8089905l0.6722107 0.9020691l-4.7872314 3.5648956zm7.8262634 -2.321312l-7.4785767 -10.03553l0.8271179 -0.61592865l7.4785767 10.035538l-0.8271179 0.615921zm0.9082947 -4.183014l-5.7046204 -7.655075l1.5289001 -1.1385269l5.8473206 4.0811234q0.81082153 0.56507874 1.2162476 0.8476181q-0.1828003 -0.5067673 -0.51394653 -1.5264435l-2.1383667 -6.6872253l1.3659973 -1.0172043l5.7046204 7.6550674l-0.97750854 0.7279129l-4.7709656 -6.402191l2.5527954 8.053986l-0.91482544 0.6812515l-7.0731506 -4.863159l4.8549805 6.5149536l-0.977478 0.7279129zm11.111603 -4.7678146l-0.6642151 0.49460602q-0.31332397 -3.662941 -2.189972 -6.181221q-0.72824097 -0.9772415 -1.6727295 -1.7739792q-0.7636719 -0.6586609 -1.6091309 -1.1394958q-0.5678406 -0.31744385 -2.0067139 -0.94083405l0.6641846 -0.49460602q1.9703674 0.5782776 3.4143982 1.5485077q1.2506409 0.84148407 2.1749573 2.081833q1.0456848 1.4032211 1.4871521 3.1200256q0.4414673 1.7167969 0.4020691 3.2851639z" fill-rule="nonzero"/><path fill="#000000" fill-opacity="0.0" d="m318.01196 149.2273l51.527557 38.708664l-20.944855 27.84253l-51.527588 -38.708664z" fill-rule="evenodd"/><path fill="#000000" d="m312.92706 172.67339l5.7391663 -7.6292114l2.873291 2.1585083q0.76205444 0.572464 1.1054688 0.9476929q0.48703003 0.5222168 0.6645508 1.0659637q0.19003296 0.55314636 0.05795288 1.1965637q-0.11956787 0.65278625 -0.54226685 1.2146759q-0.732666 0.973938 -1.8645325 1.1789703q-1.1193542 0.2144165 -2.7434082 -1.0056l-1.9488525 -1.464035l-2.3294678 3.0966492l-1.0119019 -0.7601776zm4.0176697 -3.235489l1.9613647 1.4734039q0.98690796 0.7414093 1.6715698 0.68899536q0.6940613 -0.06489563 1.1824951 -0.7141876q0.366333 -0.486969 0.37008667 -1.0118103q0.016235352 -0.5154419 -0.2989807 -0.9281311q-0.19348145 -0.26260376 -0.8805847 -0.7787781l-1.9488525 -1.4640198l-2.0570984 2.7345276zm3.0732117 12.080017q-0.04498291 -1.5776672 0.40411377 -3.292282q0.46157837 -1.7052307 1.5135803 -3.103714q0.92993164 -1.2361603 2.1844788 -2.072113q1.4484863 -0.96383667 3.421692 -1.5335236l0.6621094 0.497406q-1.4418335 0.6170807 -1.9892578 0.9289093q-0.8602295 0.46772766 -1.6268921 1.1229858q-0.95751953 0.8050232 -1.6901855 1.7789612q-1.8880005 2.5097656 -2.2175293 6.170761l-0.6621094 -0.49739075zm3.5153809 -0.8768463l5.7391663 -7.6292114l1.0119019 0.76016235l-5.062866 6.730179l3.7602844 2.824829l-0.67630005 0.89901733l-4.7721863 -3.5849762zm4.4356384 6.849823l7.523834 -10.001633l0.8245239 0.6194l-7.5238647 10.001633l-0.8244934 -0.6194zm4.2714844 -0.30885315l5.7391663 -7.629196l1.5241089 1.1449432l-2.2682495 6.758026q-0.31375122 0.9368744 -0.47061157 1.4053192q0.434906 -0.3182068 1.320282 -0.9233551l5.815979 -3.936554l1.3617249 1.022934l-5.7391663 7.6292114l-0.9744568 -0.7320099l4.7998657 -6.3805695l-7.0110474 4.719467l-0.9119568 -0.6850891l2.6731873 -8.154053l-4.8843994 6.4929504l-0.97442627 -0.73202515zm7.710663 9.31012l-0.6621094 -0.49739075q3.4277039 -1.3335724 5.3157043 -3.843338q0.732666 -0.973938 1.2310791 -2.1043243q0.41687012 -0.9180298 0.6399536 -1.8643799q0.14456177 -0.63401794 0.3371277 -2.1895905l0.6621094 0.497406q6.4086914E-4 2.0524597 -0.523407 3.710785q-0.45498657 1.4365692 -1.3849182 2.6727295q-1.0520325 1.3984833 -2.57547 2.306015q-1.523468 0.9075165 -3.0400696 1.312088z" fill-rule="nonzero"/><path fill="#000000" fill-opacity="0.0" d="m292.59564 327.06808l67.3071 -55.653534l22.204712 26.834656l-67.30707 55.653534z" fill-rule="evenodd"/><path fill="#000000" d="m314.22418 337.47144l-6.0862427 -7.355316l2.7695923 -2.290039q0.7345581 -0.60739136 1.179657 -0.85375977q0.6215515 -0.3517456 1.1919861 -0.39767456q0.582489 -0.055847168 1.1777649 0.22238159q0.6072998 0.26828003 1.055542 0.80996704q0.77697754 0.93899536 0.7127991 2.0868835q-0.05215454 1.1379395 -1.6175537 2.4323425l-1.8785095 1.5532532l2.470337 2.985443l-0.9753723 0.80651855zm-2.2121887 -4.658722l1.890564 -1.5632019q0.95129395 -0.7865906 1.0597839 -1.4642639q0.09854126 -0.6897278 -0.4194336 -1.3157043q-0.38848877 -0.46948242 -0.8982544 -0.59539795q-0.4977417 -0.13583374 -0.9727478 0.07443237q-0.30059814 0.1269226 -0.9628906 0.67453l-1.8785095 1.5532532l2.181488 2.6363525zm12.469849 -0.17349243q-1.5455627 -0.32373047 -3.1092834 -1.1596069q-1.5516663 -0.8458252 -2.6672974 -2.1940918q-0.986145 -1.1917725 -1.5072937 -2.6058655q-0.6003723 -1.6323853 -0.6949768 -3.6829834l0.6381836 -0.52770996q0.26455688 1.545166 0.4404297 2.1498718q0.2546997 0.94503784 0.7136841 1.8428345q0.5602112 1.1182251 1.3371887 2.05719q2.0021667 2.4196472 5.4875793 3.5926514l-0.6382141 0.52770996zm-0.034240723 -3.6211243l-6.0862427 -7.3552856l0.9753723 -0.80651855l5.369049 6.488556l3.6245422 -2.9969788l0.7171936 0.86672974l-4.5999146 3.8034973zm7.698242 -2.7159424l-7.978882 -9.642548l0.7947693 -0.657135l7.9788513 9.642548l-0.79473877 0.657135zm0.61026 -4.154022l-4.4028015 -5.320862l0.81881714 -0.677063l0.6275635 0.75839233q-0.14916992 -1.3566895 0.9586792 -2.2727356q0.48165894 -0.3982544 1.0305481 -0.5682678q0.54885864 -0.16998291 0.9805908 -0.040374756q0.43380737 0.10760498 0.83688354 0.42312622q0.25732422 0.21298218 0.7753296 0.83895874l2.7094116 3.274353l-0.9031372 0.74676514l-2.679535 -3.2382507q-0.45822144 -0.55374146 -0.7857361 -0.7289734q-0.33746338 -0.18728638 -0.73187256 -0.12472534q-0.40438843 0.05050659 -0.765625 0.34921265q-0.5780029 0.4779358 -0.7006531 1.187561q-0.12261963 0.70965576 0.7240906 1.7328796l2.4105835 2.9132385l-0.9031372 0.74676514zm3.1740112 -7.105133q-1.2252197 -1.4807129 -0.98205566 -2.8779602q0.1982727 -1.1574097 1.1856995 -1.973877q1.0957947 -0.9060669 2.3918762 -0.761261q1.2861328 0.13275146 2.3420105 1.408783q0.8466797 1.0232544 1.021698 1.8719788q0.18707275 0.83880615 -0.1340332 1.6517029q-0.32110596 0.81292725 -1.0195007 1.3904114q-1.1199036 0.9259949 -2.4060059 0.7932434q-1.2840576 -0.15475464 -2.3996887 -1.5030212zm0.92718506 -0.7666931q0.8467102 1.0232544 1.7106323 1.1604614q0.87594604 0.12722778 1.5502625 -0.4303589q0.6743469 -0.55755615 0.7015381 -1.4315796q0.017211914 -0.88604736 -0.84942627 -1.9333496q-0.816803 -0.9871216 -1.692749 -1.1143799q-0.8639221 -0.13720703 -1.5262146 0.4104309q-0.6743469 0.55758667 -0.713562 1.4415283q-0.027160645 0.87402344 0.81951904 1.8972473zm8.631378 -4.0146484l0.789917 0.68499756q-0.3156128 0.40289307 -0.6166687 0.65179443q-0.49371338 0.40823364 -0.9001465 0.4807434q-0.39440918 0.062561035 -0.7119751 -0.100616455q-0.31756592 -0.16320801 -0.9949341 -0.981781l-2.5301208 -3.0577087l-0.6622925 0.54763794l-0.5777283 -0.69821167l0.6622925 -0.54763794l-1.0957336 -1.3241882l0.4548645 -1.2884827l1.5439758 1.8659058l0.9031372 -0.7467346l0.5777588 0.69821167l-0.9031372 0.7467346l2.5799255 3.1178894q0.3187561 0.3852234 0.44454956 0.46368408q0.13781738 0.06851196 0.30593872 0.05114746q0.1581726 -0.029418945 0.36288452 -0.19869995q0.15655518 -0.12942505 0.36749268 -0.36468506zm4.4844055 -2.3495789l-6.0862427 -7.3552856l1.4690857 -1.2147217l6.04718 3.778717q0.838501 0.52316284 1.2577515 0.784729q-0.20831299 -0.49682617 -0.59085083 -1.498352l-2.4754028 -6.569916l1.312561 -1.0852661l6.0862427 7.3552856l-0.9392395 0.77664185l-5.090149 -6.1514893l2.9587402 7.9138184l-0.8790283 0.7268677l-7.311157 -4.497467l5.179779 6.2598267l-0.93927 0.7766113zm10.855072 -5.326172l-0.6382141 0.52770996q-0.49905396 -3.642273 -2.5012512 -6.0619507q-0.776947 -0.93896484 -1.7607117 -1.686676q-0.7961426 -0.61901855 -1.664978 -1.0562744q-0.58322144 -0.2881775 -2.0519104 -0.8376465l0.6381836 -0.52770996q1.9972229 0.477417 3.488678 1.3730164q1.2918091 0.77685547 2.277954 1.9686279q1.1156616 1.3482666 1.6437683 3.0404053q0.5281372 1.6921692 0.56848145 3.260498z" fill-rule="nonzero"/><path fill="#000000" fill-opacity="0.0" d="m309.10428 375.61618l92.8504 65.51181l-20.094513 28.472443l-92.85037 -65.51181z" fill-rule="evenodd"/><path fill="#000000" d="m304.73056 399.21027l5.5048523 -7.7999573l2.936432 2.0718079q0.7787781 0.5494995 1.1332703 0.91433716q0.5024414 0.5075073 0.69625854 1.0458069q0.20657349 0.54733276 0.09402466 1.1945801q-0.09979248 0.65625 -0.5052185 1.2307434q-0.7027588 0.99572754 -1.8276367 1.2346802q-1.1120911 0.24798584 -2.77182 -0.9230652l-1.9916382 -1.4052429l-2.234375 3.1659546l-1.0341492 -0.7296448zm3.9172058 -3.3554382l2.004425 1.4142456q1.008606 0.7116089 1.6911926 0.6386719q0.69158936 -0.08572388 1.1600952 -0.74954224q0.3513794 -0.49786377 0.33929443 -1.0227051q6.713867E-4 -0.5158386 -0.32678223 -0.91897583q-0.20129395 -0.25674438 -0.9034729 -0.75219727l-1.9916687 -1.4052429l-1.9730835 2.7957458zm3.435608 11.985382q-0.092559814 -1.5759888 0.30444336 -3.303772q0.40979004 -1.71875 1.4188538 -3.148529q0.8919678 -1.2638245 2.1203613 -2.137268q1.418396 -1.0071106 3.3729858 -1.6359253l0.67666626 0.4774475q-1.4221802 0.6602173 -1.9598083 0.98843384q-0.8454895 0.49343872 -1.5918274 1.1716003q-0.93255615 0.83358765 -1.635315 1.8293152q-1.8109131 2.5659485 -2.0297241 6.2361145l-0.67663574 -0.477417zm3.4098206 -1.0362244l3.9822083 -5.6425476l0.86816406 0.6125488l-0.56759644 0.80426025q1.2705078 -0.49954224 2.4450989 0.32919312q0.51068115 0.36032104 0.8186035 0.8453064q0.30795288 0.48498535 0.29599 0.93551636q0.00982666 0.44674683 -0.18911743 0.91830444q-0.13812256 0.30410767 -0.6066284 0.967926l-2.450592 3.472351l-0.95751953 -0.67559814l2.4235535 -3.4340515q0.41445923 -0.58721924 0.49777222 -0.9491272q0.092315674 -0.37469482 -0.07144165 -0.73883057q-0.15475464 -0.3768921 -0.53775024 -0.64712524q-0.6128235 -0.43240356 -1.329956 -0.36468506q-0.71713257 0.06768799 -1.4829407 1.1528015l-2.1803284 3.089325l-0.95751953 -0.6755676zm7.6903076 1.1998596q1.1081543 -1.570221 2.5206604 -1.7018433q1.1691895 -0.112091064 2.216095 0.6265564q1.1617737 0.81973267 1.3616943 2.1081543q0.20892334 1.2756348 -0.74609375 2.6288452q-0.7658081 1.085083 -1.5392151 1.4764099q-0.76065063 0.4003296 -1.6294861 0.30361938q-0.86883545 -0.096710205 -1.6093445 -0.61917114q-1.1873169 -0.83773804 -1.3962402 -2.1133728q-0.1871643 -1.279419 0.82192993 -2.709198zm0.98306274 0.6936035q-0.7658386 1.0851135 -0.6718445 1.9545593q0.10675049 0.878479 0.8216858 1.3829346q0.7149658 0.50442505 1.5657349 0.3015747q0.85980225 -0.2156372 1.6436462 -1.326294q0.73876953 -1.0467834 0.63201904 -1.9252625q-0.09396362 -0.8694763 -0.7961426 -1.3648987q-0.7149658 -0.50445557 -1.5785217 -0.3105774q-0.85076904 0.20288086 -1.6165771 1.2879639zm6.13739 7.275238l-0.45419312 0.9416199q-0.47161865 -0.19888306 -0.790802 -0.42407227q-0.5234375 -0.36932373 -0.6999512 -0.74246216q-0.16375732 -0.36413574 -0.08944702 -0.71328735q0.074279785 -0.34918213 0.6869507 -1.2172546l2.2884216 -3.2425232l-0.70217896 -0.49545288l0.5225525 -0.7404175l0.70217896 0.49542236l0.99105835 -1.4042358l1.3629456 0.101135254l-1.3964844 1.9786987l0.95755005 0.67559814l-0.522583 0.7404175l-0.95751953 -0.6755676l-2.3334656 3.306366q-0.28829956 0.4085083 -0.3310852 0.55041504q-0.030029297 0.15090942 0.030822754 0.30859375q0.06985474 0.14489746 0.28689575 0.29803467q0.16595459 0.11709595 0.44833374 0.25897217zm3.4305115 3.7016602l5.5048523 -7.7999573l1.0341187 0.7296448l-4.85614 6.880829l3.842865 2.7113647l-0.64868164 0.91915894l-4.877014 -3.44104zm4.639221 6.7153625l7.216675 -10.225494l0.84262085 0.59451294l-7.216675 10.225494l-0.84262085 -0.59451294zm4.1697693 -0.50006104l3.9822388 -5.6425476l0.86816406 0.6125488l-0.56762695 0.80426025q1.2705383 -0.49954224 2.4450989 0.32919312q0.51068115 0.36032104 0.81863403 0.8453064q0.30792236 0.48501587 0.29599 0.93551636q0.009796143 0.44674683 -0.18911743 0.91830444q-0.13815308 0.30413818 -0.6066284 0.96795654l-2.4506226 3.4723206l-0.95751953 -0.67559814l2.423584 -3.434021q0.4144287 -0.58724976 0.4977417 -0.9491577q0.092315674 -0.37469482 -0.07144165 -0.73883057q-0.15472412 -0.3768921 -0.53775024 -0.64712524q-0.6128235 -0.43237305 -1.329956 -0.36468506q-0.71713257 0.06768799 -1.4829407 1.1528015l-2.1803284 3.0893555l-0.95751953 -0.67559814zm7.6903076 1.1998596q1.1081848 -1.5701904 2.5206604 -1.7018433q1.1691895 -0.11206055 2.216095 0.6265869q1.1618042 0.81973267 1.3617249 2.1081238q0.20892334 1.2756653 -0.74609375 2.6288452q-0.7658081 1.0851135 -1.5392456 1.4764404q-0.7606201 0.4003296 -1.6294861 0.30361938q-0.86883545 -0.096710205 -1.609314 -0.61917114q-1.1873474 -0.83776855 -1.3962708 -2.1134033q-0.18713379 -1.279419 0.82192993 -2.709198zm0.98306274 0.69363403q-0.7658081 1.085083 -0.6718445 1.9545593q0.10675049 0.8784485 0.8217163 1.382904q0.7149353 0.50445557 1.5657349 0.3015747q0.8597717 -0.2156372 1.6436157 -1.3262634q0.73880005 -1.046814 0.63204956 -1.925293q-0.09399414 -0.8694458 -0.7961731 -1.3648987q-0.7149658 -0.50442505 -1.5784912 -0.3105774q-0.85079956 0.20288086 -1.6166077 1.2879944zm6.13739 7.2752075l-0.45419312 0.9416504q-0.47161865 -0.19891357 -0.7907715 -0.42410278q-0.523468 -0.36932373 -0.6999817 -0.74246216q-0.16375732 -0.36413574 -0.08944702 -0.71328735q0.0743103 -0.3491516 0.6869507 -1.2172546l2.2884216 -3.2425232l-0.70217896 -0.49545288l0.5225525 -0.7404175l0.70217896 0.49545288l0.99105835 -1.4042664l1.3629761 0.101135254l-1.3964844 1.9787292l0.95751953 0.67559814l-0.5225525 0.7404175l-0.95755005 -0.67559814l-2.3334656 3.306366q-0.28829956 0.4085083 -0.3310852 0.55041504q-0.030029297 0.15093994 0.030822754 0.30859375q0.06985474 0.14489746 0.28689575 0.29803467q0.1659851 0.117126465 0.44833374 0.25897217zm3.4432983 3.7106934l5.5048523 -7.799988l1.5575562 1.0989685l-2.062683 6.8247986q-0.2852173 0.94610596 -0.42782593 1.4191589q0.42495728 -0.33117676 1.2914734 -0.9627991l5.693054 -4.1103516l1.3916016 0.98187256l-5.5048523 7.7999573l-0.9958191 -0.7026062l4.603882 -6.5233765l-6.8636475 4.928955l-0.93200684 -0.65756226l2.425232 -8.232697l-4.6849976 6.638275l-0.9958191 -0.7026062zm7.9861755 9.076843l-0.67663574 -0.477417q3.3850098 -1.4362183 5.1959534 -4.0021667q0.7027283 -0.99572754 1.1666565 -2.1408386q0.3888855 -0.9303589 0.58325195 -1.8832092q0.12530518 -0.6382446 0.27078247 -2.1992798l0.67666626 0.477417q0.06259155 2.0520325 -0.41104126 3.725769q-0.41131592 1.4499512 -1.3032532 2.7137756q-1.0090942 1.429779 -2.5040588 2.382843q-1.4949951 0.9530945 -2.9983215 1.4031067z" fill-rule="nonzero"/></g></svg>